<?xml version="1.0" encoding="utf-8"?>
<!-- Generator: Adobe Illustrator 19.0.0, SVG Export Plug-In . SVG Version: 6.00 Build 0)  -->
<svg version="1.1" id="layer" xmlns="http://www.w3.org/2000/svg" xmlns:xlink="http://www.w3.org/1999/xlink" x="0px" y="0px"
	 viewBox="-153 -46 652 652" style="enable-background:new -153 -46 652 652;" xml:space="preserve">
<style type="text/css">
	.st0{fill:#005464;}
</style>
<path class="st0" d="M-3.8,49.3L-3.8,49.3c0-13.6,11-24.6,24.6-24.6h49.1c13.6,0,24.6,11,24.6,24.6l0,0c0,13.6-11,24.6-24.6,24.6
	H20.7C7.2,73.9-3.8,62.9-3.8,49.3z M20.7,172.1h49.1c13.6,0,24.6-11,24.6-24.6l0,0c0-13.6-11-24.6-24.6-24.6H20.7
	c-13.6,0-24.6,11-24.6,24.6l0,0C-3.8,161.1,7.2,172.1,20.7,172.1z M20.7,270.4h49.1c13.6,0,24.6-11,24.6-24.6l0,0
	c0-13.6-11-24.6-24.6-24.6H20.7c-13.6,0-24.6,11-24.6,24.6l0,0C-3.8,259.4,7.2,270.4,20.7,270.4z M143.5,73.9h49.1
	c13.6,0,24.6-11,24.6-24.6l0,0c0-13.6-11-24.6-24.6-24.6h-49.1c-13.6,0-24.6,11-24.6,24.6l0,0C118.9,62.9,129.9,73.9,143.5,73.9
	L143.5,73.9z M143.5,172.1h49.1c13.6,0,24.6-11,24.6-24.6l0,0c0-13.6-11-24.6-24.6-24.6h-49.1c-13.6,0-24.6,11-24.6,24.6l0,0
	C119,161.1,129.9,172.1,143.5,172.1L143.5,172.1z M143.5,270.4h49.1c13.6,0,24.6-11,24.6-24.6l0,0c0-13.6-11-24.6-24.6-24.6h-49.1
	c-13.6,0-24.6,11-24.6,24.6l0,0C118.9,259.4,129.9,270.4,143.5,270.4L143.5,270.4z M266.3,73.9h49.1c13.6,0,24.6-11,24.6-24.6l0,0
	c0-13.6-11-24.6-24.6-24.6h-49.1c-13.6,0-24.6,11-24.6,24.6l0,0C241.7,62.9,252.7,73.9,266.3,73.9L266.3,73.9z M324.4,138.5
	L281.9,114c-11.8-6.8-26.8-2.7-33.6,9l0,0c-6.8,11.8-2.7,26.8,9,33.6l42.5,24.6c11.8,6.8,26.8,2.7,33.6-9l0,0
	C340.2,160.3,336.1,145.3,324.4,138.5z M324.4,236.8l-42.5-24.6c-11.8-6.8-26.8-2.7-33.6,9l0,0c-6.8,11.8-2.7,26.8,9,33.6l42.5,24.5
	c11.8,6.8,26.8,2.7,33.6-9l0,0C340.2,258.6,336.2,243.6,324.4,236.8L324.4,236.8z M65.4,417.9H17.4v-27.2h40.9v-17.1H17.4v-24.6
	h47.8v-17.2H-3.8v103.3h69.2V417.9z M79.2,331c-2,2-3.2,4.7-3.1,7.6c-0.1,2.9,1.1,5.7,3.2,7.6c2.3,2.1,5.3,3.1,8.3,3
	c3.1,0.1,6-0.9,8.3-3c2.1-2,3.2-4.8,3.1-7.6c0.1-2.8-1.1-5.6-3.1-7.6c-2.3-2.1-5.3-3.1-8.3-3C84.5,327.8,81.5,328.9,79.2,331
	L79.2,331z M77.3,434.9h20.5v-78H77.3V434.9z M141.4,457.1c-5.3,0-10.6-1.1-15.6-3.2c-4.5-1.7-8.4-4.5-11.5-8.2l8.6-11.8
	c4.3,5.2,10.8,8.2,17.6,8.1c4.4,0.3,8.7-1.2,12-4.1c3-3.1,4.6-7.4,4.3-11.7v-3.9c-4.5,5-11,7.8-17.7,7.6
	c-8.3,0.2-16.2-3.6-21.2-10.2c-5.7-7.9-8.6-17.4-8.1-27.1v-0.9c-0.5-9.6,2.3-19.1,7.9-26.9c5.1-6.7,13.1-10.5,21.4-10.2
	c7.1-0.3,14,2.7,18.5,8.2l0.7-5.8h17.7v69.2c0.1,5.8-1.3,11.6-4.3,16.6c-2.9,4.7-7.2,8.4-12.2,10.7
	C153.9,456,147.7,457.3,141.4,457.1L141.4,457.1z M156.8,407.6V377c-2.6-4.4-7.4-7-12.5-6.6c-4.4-0.1-8.5,2-10.9,5.7
	c-3,5.2-4.4,11.1-4,17.1c-0.3,5.4,1.1,10.9,3.9,15.5c2.4,3.6,6.5,5.8,10.9,5.6C149.3,414.6,154.2,412,156.8,407.6z M227.8,437.8
	c-10.5,0.4-20.8-3.4-28.4-10.7c-7.5-7.6-11.5-17.9-11-28.6v-2.1c-0.1-7.4,1.5-14.7,4.6-21.4c2.9-6,7.4-11.1,13.1-14.6
	c5.8-3.5,12.5-5.2,19.3-5.1c9.6-0.5,19,3.3,25.7,10.3c6.3,6.9,9.4,16.6,9.4,29.1v10.6h-50.6c0.5,4.2,2.8,8.1,6.2,10.6
	c3.6,3.2,8.3,4.9,13.1,4.7c7.4,0.3,14.6-3,19.1-8.9l10.5,11.7c-3.3,4.6-7.8,8.2-12.9,10.5C240.2,436.6,234,437.9,227.8,437.8z
	 M209.8,390.7h29.8v-3.3c0.1-4-1.2-7.9-3.8-10.9c-2.8-2.7-6.6-4.1-10.5-3.9c-3.9-0.1-7.6,1.4-10.3,4.2
	C211.8,380.7,209.9,385.6,209.8,390.7z M293.4,379.9c2.6-4.8,7.7-7.7,13.2-7.5c3.5-0.3,6.9,0.7,9.6,3c2.2,2.7,3.2,6.2,2.9,9.6V435
	H340v-50.4c0.5-7.8-1.7-15.5-6.2-21.8c-4.7-5.2-11.5-7.9-18.4-7.3c-8.7-0.3-17.1,3.6-22.4,10.5l-0.7-9h-19.6v78.1h20.9L293.4,379.9z
	 M-3.8,476h14.6v39.6h3.6V476h14.6v-3.1H-3.8V476z M53,487.2c2.4,3.1,3.6,6.9,3.4,10.7v2.4H33.7v0.3c-0.1,3.3,1,6.5,3.1,9
	c1.9,2.3,4.8,3.7,7.8,3.6c1.7,0,3.4-0.3,5-1c1.6-0.8,2.9-1.9,3.9-3.3l2.2,1.7c-2.5,3.7-6.8,5.9-11.3,5.6c-2.6,0-5.1-0.7-7.3-2
	c-2.2-1.3-3.9-3.3-5.1-5.6c-1.2-2.5-1.8-5.2-1.8-8v-1.3c-0.1-2.8,0.5-5.7,1.7-8.3c1.1-2.3,2.8-4.3,4.9-5.8c2-1.4,4.4-2.1,6.9-2.1
	C47.3,483.1,50.7,484.6,53,487.2z M53,496.9c0-2.8-1-5.6-2.8-7.8c-1.6-1.9-4-3-6.4-2.9c-2.5,0-5,1-6.7,2.9c-1.9,2.3-3.1,5.1-3.4,8.1
	h19.2L53,496.9L53,496.9z M307.2,487.2c2.4,3.1,3.6,6.9,3.4,10.7v2.4H288v0.3c-0.1,3.3,1,6.5,3.1,9c1.9,2.3,4.8,3.7,7.8,3.6
	c1.7,0,3.4-0.3,5-1c1.6-0.8,2.9-1.9,3.9-3.3l2.2,1.7c-2.5,3.7-6.8,5.9-11.3,5.6c-2.6,0-5.1-0.7-7.3-2c-2.2-1.3-4-3.3-5.1-5.6
	c-1.2-2.5-1.8-5.2-1.8-8v-1.3c-0.1-2.8,0.5-5.7,1.7-8.3c1.1-2.3,2.8-4.3,4.9-5.8c2-1.4,4.4-2.1,6.9-2.1
	C301.6,483.1,304.9,484.6,307.2,487.2z M307.2,496.9c0-2.8-1-5.6-2.8-7.8c-1.6-1.9-4-3-6.4-2.9c-2.5,0-5,1-6.7,2.9
	c-1.9,2.3-3.1,5.1-3.4,8.1h19.2L307.2,496.9L307.2,496.9z M67.5,489.7c1.7-2.3,4.5-3.6,7.4-3.4c2.3-0.1,4.5,0.7,6.2,2.3
	c1.6,1.6,2.6,3.7,2.7,6h3.4c-0.1-3.1-1.4-6.1-3.6-8.2c-2.4-2.1-5.5-3.2-8.6-3.1c-2.5,0-5,0.6-7.2,1.9c-2.1,1.3-3.7,3.3-4.7,5.6
	c-1.1,2.6-1.7,5.5-1.6,8.3v1.1c-0.2,4.2,1.1,8.4,3.6,11.7c2.5,2.9,6.1,4.5,9.9,4.3c2.1,0,4.1-0.5,5.9-1.4c1.8-0.8,3.3-2.1,4.4-3.8
	c1.1-1.5,1.8-3.4,1.8-5.3h-3.4c-0.1,2.1-1,4.1-2.7,5.4c-1.7,1.4-3.9,2.1-6.1,2.1c-2.9,0.1-5.6-1.1-7.4-3.4c-1.9-2.8-2.8-6.1-2.6-9.5
	v-1C64.7,495.9,65.6,492.5,67.5,489.7L67.5,489.7z M107.9,483.3c-2.1,0-4.1,0.5-5.9,1.6c-1.8,1.1-3.3,2.6-4.4,4.4v-18.7h-3.5v45h3.5
	v-21.7c0.7-2.1,2-4,3.7-5.5c1.6-1.4,3.6-2.1,5.8-2.1c2.1-0.2,4.2,0.6,5.7,2.1c1.3,1.8,1.9,4.1,1.8,6.3v20.8h3.5v-20.8
	c0.2-3.1-0.7-6.1-2.5-8.6C113.4,484.1,110.7,483.1,107.9,483.3L107.9,483.3z M140.8,483.3c-2.1,0-4.1,0.5-5.9,1.6
	c-1.8,1.1-3.4,2.6-4.4,4.5l-0.1-5.4h-3.3v31.7h3.5v-21.7c0.7-2.1,2-4,3.7-5.5c1.6-1.4,3.6-2.1,5.8-2.1c2.1-0.2,4.2,0.6,5.7,2.1
	c1.3,1.8,1.9,4.1,1.8,6.3v20.8h3.5v-20.8c0.2-3.1-0.7-6.1-2.5-8.6C146.5,484.1,143.7,483.1,140.8,483.3L140.8,483.3z M182.5,487.7
	c2.7,3.3,4.1,7.5,3.9,11.8v0.7c0.1,2.8-0.5,5.7-1.7,8.3c-1.1,2.3-2.8,4.3-5,5.7c-2.2,1.3-4.8,2-7.4,2c-3.9,0.1-7.7-1.5-10.3-4.4
	c-2.7-3.3-4.1-7.5-3.9-11.8v-0.7c-0.1-2.8,0.5-5.7,1.7-8.3c1.1-2.3,2.8-4.3,5-5.7c2.2-1.4,4.7-2.1,7.3-2.1
	C176.1,483.1,179.9,484.8,182.5,487.7L182.5,487.7z M182.9,499.3c0-2.3-0.4-4.5-1.3-6.6c-0.8-1.9-2.1-3.5-3.8-4.7
	c-1.6-1.1-3.6-1.7-5.6-1.6c-3-0.1-5.8,1.3-7.6,3.7c-2.1,2.8-3.1,6.2-2.9,9.6v0.6c-0.1,3.4,0.9,6.6,2.9,9.3c1.9,2.4,4.7,3.7,7.8,3.6
	c3,0.1,5.9-1.3,7.7-3.6c2.1-2.8,3.1-6.2,2.9-9.6L182.9,499.3L182.9,499.3z M194,515.6h3.5v-45H194L194,515.6z M229.5,487.7
	c2.7,3.3,4.1,7.5,3.9,11.8v0.7c0.1,2.8-0.5,5.7-1.7,8.3c-1.1,2.3-2.8,4.3-5,5.7c-2.2,1.3-4.8,2-7.4,2c-3.9,0.1-7.7-1.5-10.3-4.4
	c-2.7-3.3-4.1-7.5-3.9-11.8v-0.7c-0.1-2.8,0.5-5.7,1.7-8.3c1.1-2.3,2.8-4.3,5-5.7c2.2-1.4,4.7-2.1,7.3-2.1
	C223.1,483.1,226.9,484.7,229.5,487.7L229.5,487.7z M229.9,499.3c0-2.3-0.4-4.5-1.3-6.6c-0.8-1.9-2.1-3.5-3.8-4.7
	c-1.6-1.1-3.6-1.7-5.6-1.6c-3-0.1-5.8,1.3-7.6,3.7c-2.1,2.8-3.1,6.2-2.9,9.6v0.6c-0.1,3.4,0.9,6.6,2.9,9.3c1.9,2.4,4.7,3.7,7.8,3.6
	c3,0.1,5.9-1.3,7.7-3.6c2.1-2.8,3.1-6.2,2.9-9.6L229.9,499.3L229.9,499.3z M261.6,483.9h3.3v27.6c0.2,3.6-1,7-3.4,9.7
	c-1.2,1.2-2.6,2.2-4.2,2.8c-1.6,0.6-3.4,0.9-5.1,0.9c-2.2,0-4.4-0.5-6.3-1.5c-0.1,0-0.2-0.1-0.3-0.2c-1-0.5-2-1.2-2.8-1.9
	c-0.6-0.5-1.1-1.2-1.6-1.8l1.9-2.1c2.1,2.8,5.4,4.5,8.9,4.6c2.5,0.1,5-0.8,6.9-2.6c1.7-2,2.6-4.6,2.6-7.2v-0.5
	c-2.3,3.1-6,4.9-9.8,4.7c-3.5,0.1-6.8-1.6-8.9-4.4c-2.4-3.5-3.6-7.7-3.4-11.9v-0.5c0-0.5,0-1,0.1-1.5c0-3.7,1.1-7.3,3.2-10.3
	c1.4-1.9,3.4-3.3,5.6-3.9l0,0c1.1-0.3,2.2-0.4,3.2-0.4c3.2-0.1,6.2,1.1,8.4,3.4c0.5,0.6,1,1.2,1.4,1.8L261.6,483.9z M261.3,492.6
	c-0.7-1.9-1.9-3.5-3.6-4.6c-1.6-1.1-3.6-1.6-5.6-1.6c-2.7-0.1-5.3,1.2-6.9,3.5c-1.5,2.5-2.4,5.4-2.4,8.4c-0.1,0.6-0.1,1.2-0.1,1.9
	c-0.2,3.4,0.7,6.7,2.4,9.6c0.8,1.1,1.7,2,2.9,2.6c1.2,0.6,2.6,0.9,4,0.9c3,0.1,5.9-1.2,7.8-3.5c0.6-0.7,1-1.5,1.4-2.3L261.3,492.6
	L261.3,492.6z M273.3,515.6h3.5v-31.7h-3.5L273.3,515.6z M275.2,472.3c-0.7,0-1.3,0.2-1.7,0.7c-0.4,0.4-0.7,1.1-0.6,1.7
	c0,1.3,1.2,2.4,2.5,2.4c0.6,0,1.2-0.3,1.6-0.7c0.4-0.4,0.7-1,0.7-1.7c0-0.6-0.2-1.2-0.7-1.7C276.5,472.5,275.8,472.3,275.2,472.3z
	 M338.9,503.1c-0.9-1.3-2.1-2.3-3.4-2.9c-2.2-1.1-4.5-1.8-6.9-2.3c-2.2-0.4-4.4-1.2-6.4-2.4c-1.2-0.8-1.8-2.2-1.7-3.7
	c0-1.6,0.8-3.1,2.1-4c1.6-1.1,3.6-1.6,5.6-1.6c2.1-0.1,4.2,0.6,5.9,1.9c1.5,1.1,2.3,2.8,2.3,4.6h3.5c0.1-2.7-1.1-5.2-3.2-6.9
	c-2.4-1.8-5.4-2.8-8.5-2.6c-2.9-0.1-5.7,0.7-8,2.4c-2,1.4-3.1,3.7-3.1,6.2c0,1.4,0.4,2.9,1.1,4.1c0.9,1.2,2.1,2.2,3.4,2.8
	c2.1,0.9,4.3,1.6,6.6,2.1c2.3,0.4,4.4,1.2,6.3,2.5c1.3,1,2.1,2.5,2.1,4.2c0,1.6-0.9,3.2-2.3,4.1c-1.8,1.1-3.8,1.7-5.9,1.6
	c-2.2,0.1-4.5-0.5-6.3-1.7c-1.6-1.1-2.6-2.9-2.6-4.8h-3.5c0,2.7,1.2,5.2,3.4,6.8c2.6,1.9,5.8,2.8,9,2.7c3,0.1,6-0.7,8.4-2.4
	c2.1-1.5,3.3-3.9,3.2-6.4C340,505.8,339.6,504.4,338.9,503.1L338.9,503.1z"/>
</svg>
